<?xml version="1.0" encoding="utf-8"?>
<!-- Generator: Adobe Illustrator 19.0.0, SVG Export Plug-In . SVG Version: 6.00 Build 0)  -->
<svg version="1.1" id="Layer_1" xmlns="http://www.w3.org/2000/svg" xmlns:xlink="http://www.w3.org/1999/xlink" x="0px" y="0px"
	 viewBox="-235 237 128 128" style="enable-background:new -235 237 128 128;" xml:space="preserve">
<style type="text/css">
	.st0{fill:#E74C3C;}
</style>
<g>
	<path class="st0" d="M-195,329c-0.8,0-1.5-0.2-2.2-0.7l-36-24c-1.1-0.7-1.8-2-1.8-3.3c0-1.3,0.7-2.6,1.8-3.3l36-24
		c1.8-1.2,4.3-0.7,5.5,1.1c1.2,1.8,0.7,4.3-1.1,5.5l-31,20.7l31,20.7c1.8,1.2,2.3,3.7,1.1,5.5C-192.4,328.4-193.7,329-195,329z"/>
</g>
<g>
	<path class="st0" d="M-147,330c-1.2,0-2.5-0.6-3.2-1.7c-1.3-1.8-0.9-4.3,0.9-5.6l31.3-22.6l-31.2-20.8c-1.8-1.2-2.3-3.7-1.1-5.5
		c1.2-1.8,3.7-2.3,5.5-1.1l36,24c1.1,0.7,1.8,1.9,1.8,3.3s-0.6,2.6-1.7,3.3l-36,26C-145.4,329.8-146.2,330-147,330z"/>
</g>
<g>
	<path class="st0" d="M-182,341c-0.4,0-0.8-0.1-1.2-0.2c-2.1-0.6-3.3-2.9-2.7-5l22-72c0.6-2.1,2.9-3.3,5-2.7c2.1,0.6,3.3,2.9,2.7,5
		l-22,72C-178.7,339.9-180.3,341-182,341z"/>
</g>
</svg>
