<?xml version="1.0" encoding="utf-8"?>
<!-- Generator: Adobe Illustrator 19.0.0, SVG Export Plug-In . SVG Version: 6.00 Build 0)  -->
<svg version="1.1" id="Layer_1" xmlns="http://www.w3.org/2000/svg" xmlns:xlink="http://www.w3.org/1999/xlink" x="0px" y="0px"
	 viewBox="-171 173 256 256" style="enable-background:new -171 173 256 256;" xml:space="preserve">
<style type="text/css">
	.st0{fill:#E74C3C;}
</style>
<g>
	<path class="st0" d="M265.5,932.6c11.5,11,9.5,31.5-4.3,45.9c-10.2,10.6-24,14.9-35.1,12c-5.4-1.4-10.6,0.1-14.4,4.1l-5.4,5.6
		c-1.8-2.2-4.1-4.1-6.5-5.5l5.8-6c3.8-4,5.1-9.3,3.5-14.5c-3.3-11,0.5-24.9,10.7-35.4C233.5,924.4,254,921.7,265.5,932.6
		L265.5,932.6z M228.1,982.3c9.7,2.4,20.3-2.9,26.9-9.7c7.2-7.4,12.7-20.4,7.3-30.3c-0.7-1.3-1.6-2.5-2.7-3.6
		c-1.1-1-2.3-1.9-3.7-2.6c-10.1-5-23,1.1-30.1,8.5c-6.6,6.8-11.5,17.6-8.6,27.1C219.5,979.7,220.1,980.3,228.1,982.3L228.1,982.3z"
		/>
	<path class="st0" d="M140.3,902.9c-12.7-3.1-25.5,4.7-28.5,17.3c-3.1,12.6,4.7,25.3,17.4,28.4c12.7,3.1,25.5-4.7,28.5-17.3
		S153,905.9,140.3,902.9L140.3,902.9z M188.3,1004.4c4.5,0.1,8.4,3,9.8,7l0,0l0.1,0.2c0.5,1.4,0.7,3,0.6,4.6
		c-0.6,5.9-5.8,10.2-11.7,9.7l0,0l-41.9-0.6c-4.2,0.2-8.3-2.1-10.2-6.1l-3.8-7.8l-5.6,22.8l34.9,19.1c3.1,1.7,5,4.7,5.5,7.9l8,47.7
		c1,5.9-3,11.4-8.9,12.4c-5.8,1-11.3-2.9-12.4-8.6l-10.7-41.4l-35.4-14.3c-1.4,0.3-2.9,0.4-4.4,0.5l-7.6,27c-0.6,2.3-2,4.2-3.7,5.5
		l0,0l-42,33.2c-4.5,3.8-11.2,3.4-15.1-1c-4-4.4-3.6-11.2,0.9-15.2l34.1-30.2l6.5-43.8c0.1-0.8,0.2-1.7,0.4-2.5l11.5-47l-15.5,1.2
		l-6.4,32.8l-0.2,1.1c-0.9,5.9-6.4,9.9-12.3,9.1c-4.9-0.7-8.6-4.6-9.2-9.3c-0.2-1.2-0.1-2.4,0.1-3.6l0.2-1l5.9-40.2
		c0.6-4.9,4.4-8.8,9.4-9.4c0.4-0.1,0.8-0.2,1.1-0.3l46.2-9.7c0.4-0.1,0.8-0.1,1.2-0.2c3.7-0.7,7.8-0.6,11.9,0.3
		c9.3,2.2,16.2,8.6,18.6,16.1l13.4,30.6L188.3,1004.4L188.3,1004.4z"/>
	<g>
		<path class="st0" d="M-66.4,258.7c0.3,0.2,0.5,0.5,0.8,0.7c2.3,2.1,5,3.5,8.1,3.5h6.5v-4.4c0-2.2,1.8-3.6,4-3.6h0
			c0-10,0-16.2,1.7-22.4c1.8-6.4,5.2-11.9,12-18.4c0.4-0.4,0.9-0.9,1.3-1.3c6-5.7,10.2-9.7,10.2-16.8c0-2.2,1.8-4,4-4s4,1.8,4,4
			c0,10.5-5.3,15.5-12.7,22.6c-0.4,0.4-0.8,0.8-1.3,1.2c-5.6,5.4-8.4,10-9.8,14.9C-39,239.9-39,246-39,255h0c2.2,0,4,1.4,4,3.6v4.4
			h6.5c3.1,0,5.8-1.5,8.1-3.5c0.3-0.2,0.5-0.5,0.8-0.7c14.1-12.3,33.8-16.1,51.5-9.7c16.3,6,28.8,19.9,32.6,37.2
			c1.4,6.4,1.9,19,2.6,25.7l6.8,76.1c1.8,19.7-26.7,28.8-37.9,16.2C22.6,389,10.3,373-2.2,358H-16c-7.7,0-14-6.4-14-14.1v-0.9
			c0-2.2-1.8-3.9-4-3.9h-18c-2.2,0-4,1.7-4,3.9v0.9c0,7.7-6.3,14.1-14,14.1h-13.8c-12.5,15-24.8,31.1-38.2,46.2
			c-11.2,12.7-39.7,3.6-37.9-16.1l6.8-76.1c0.6-6.7,1.1-19.3,2.5-25.7c3.9-17.2,16.3-31.2,32.6-37.2
			C-100.2,242.6-80.5,246.4-66.4,258.7L-66.4,258.7z M53,327.8c-3.6,4.7-8,8.6-12.9,11.7c-9.4,5.8-20.6,8.3-31.6,7
			c-0.8-0.1-1.6,0.3-2,1c-0.4,0.7-0.3,1.6,0.2,2.2l1.2,1.4c0.3-0.1,0.6-0.1,0.9-0.1c12.2,1.5,24.8-1.3,35.2-7.8
			c4.8-3,9.2-6.8,12.9-11.1l-0.3-3.3c-0.1-0.8-0.6-1.5-1.4-1.8C54.3,326.9,53.5,327.1,53,327.8L53,327.8z M-139,327.8
			c3.6,4.7,8,8.6,12.9,11.7c9.4,5.8,20.6,8.3,31.6,7c0.8-0.1,1.6,0.3,2,1c0.4,0.7,0.3,1.6-0.2,2.2l-1.2,1.4
			c-0.3-0.1-0.6-0.1-0.9-0.1c-12.2,1.5-24.8-1.3-35.2-7.8c-4.8-3-9.2-6.8-12.9-11.1l0.3-3.3c0.1-0.8,0.6-1.5,1.4-1.8
			C-140.3,326.9-139.5,327.1-139,327.8L-139,327.8z M-91,268h-18l0,20.9l-21-0.2v18l21,0.1l0,21.2h18l0-21h21v-18.3l-21,0.2L-91,268
			L-91,268z M14,267.6c5,0,9,4,9,9c0,5-4,9-9,9c-5,0-9-4-9-9S9.1,267.6,14,267.6L14,267.6z M14,309.8c5,0,9,4.1,9,9c0,5-4,9-9,9
			s-9-4-9-9C5,313.8,9.1,309.8,14,309.8L14,309.8z M44,297.7c0,5-4,9-9,9c-5,0-9-4-9-9c0-5,4-9,9-9C40,288.7,44,292.7,44,297.7
			L44,297.7z M2,297.7c0,5-4,9-9,9c-5,0-9-4-9-9c0-5,4-9,9-9C-2,288.7,2,292.7,2,297.7L2,297.7z"/>
	</g>
</g>
</svg>
