<?xml version="1.0" encoding="utf-8"?>
<!-- Generator: Adobe Illustrator 19.0.0, SVG Export Plug-In . SVG Version: 6.00 Build 0)  -->
<svg version="1.1" id="Layer_1" xmlns="http://www.w3.org/2000/svg" xmlns:xlink="http://www.w3.org/1999/xlink" x="0px" y="0px"
	 viewBox="-249 251 100 100" style="enable-background:new -249 251 100 100;" xml:space="preserve">
<style type="text/css">
	.st0{fill:#E74C3C;}
</style>
<g id="Vrstva_2">
	<g>
		<polygon class="st0" points="-194.8,263.3 -200.1,261.4 -209.8,264.5 -206.9,267.2 -207.7,270.1 -205.8,274 -203.2,270.1 
			-196.7,267.5 		"/>
		<polygon class="st0" points="-196.6,271.7 -194.8,271.7 -193.6,270.4 -194.4,269.4 -196.6,270.4 		"/>
		<path class="st0" d="M-199.1,251c-27.6,0-49.9,22.3-49.9,49.9c0,27.6,22.3,49.9,49.9,49.9s49.9-22.3,49.9-49.9
			S-171.5,251-199.1,251z M-167.1,303.6h-1.2l-3.5-6.8l-0.9-3.3l2,0.4l2.9,5.9L-167.1,303.6z M-174.8,269.2c0.5,0.4,1.1,0.8,1.6,1.3
			l-1.3,1l-1.6-1.4L-174.8,269.2z M-239.1,300.9c0-0.7,0-1.5,0.1-2.2l2.3,2.3l5.2,2.1l3.4,3.3l2.5,0.7l-3,7.4l6.6,9.3l0.8,5.8
			l-0.8,4C-232.3,326.4-239.1,314.4-239.1,300.9z M-199.1,340.9c-6.2,0-12.1-1.4-17.3-3.9l1.5-3.2l3.4-3.6l0.8-3.8l3-2.2l0.5-4.4
			l1.9-5.4l-7.5-4l-1.6-2.8l-2.5-0.9l-0.5-1.8l-3.6-1.1l-1.9-0.9l-3.5,2l-2.2-1.2l-0.8-2.6l-1.3-0.5l0.3-2.9h-1.3l-1.7,1.4l-1.7-0.9
			l-0.1-3.4l4-2.2l3-0.2l1.9,1.3l0.6-3.1l2.5-1.9l1.3-3.2l3-2l3.2-1l0.8-1.4l-3.2-0.9l5.9-1.3l0.5,1.9l0.9-1l-0.9-2.9l-1.7-1.5
			l-0.5-1.9l-3.3-1.3l-2.4,3.4l-2.2,3l-3.4-3.2l-0.1-1.3l4.3-2.8l2.4,0.1l1.9-2.8l2.7,0.7l-1.1,1.4l2.1,0.9l2.6-1.5l-2.6-2.7
			l-2.7-0.9l-1.5,0.9l-1.3-1.1l-1.2,3l-1.1-1.7c1.7-1.1,3.5-2.1,5.4-3l1.8,0.4l5-2.3l-0.3-0.5c3.3-0.9,6.7-1.3,10.2-1.3
			c8.5,0,16.4,2.7,22.9,7.3l-3.5-1l-4.9,2.5l-2.6,3.2l0.7,2l2.2-0.3l1.6,1l1.2-2.1l0.9-3.4l1.3,0.4l-0.5,2.9l1.2-0.2l-1.6,2.4
			l-2.3,1.8l-2.2-1.3l-2,1l-1.4,0.4l-2-3.7l-0.8,0.3l0.6,3.4l-1.6-1.1l-0.7,0.5l0.4,1.5h1.8l-0.1,1h1.9l-2.7,1.4l1.6,2.4l-3.3,1v3.2
			l1.5,0.7l1.7-0.8l2.6-3.6l2.5,0.1l2.2,1.5l-0.1,1.3l0.7,0l0.6-2l-0.9-1.8l1.9,2.1l1.3,2.5l1.2-2.1l2,1.9c0,0,3.2,1.2,3.3,1.3
			c0.2,0-1.6,2.4-1.6,2.4l-4.3-0.8l-1.9,0.3l-0.9,1.2l-3-3.2l-4.2-0.2l-4.3,2.1l-4,6.2l-0.7,3.4l1.4,4.8l3.1,4.2l2.4-1.2l1.2,0.4
			l1.9-0.8l3.7,1.2l-0.5,3.5l1.6,5.1l-0.3,5.3l2,7.3l0.3,3.5l3.3-1.2l1.9-0.3l2.6-3.7l1.2-2.3l-1-2.1l3.5-2.5l0.4-7.7l4.5-9.6
			l-2.2-0.7l5.3-5l-0.9-3.2l-1.3,0.8l-2.8-1.4l0.6-2.5l1.9,1.8l1.6,0.3l2.2,1.6c0.2,1.8,0.4,3.6,0.4,5.5
			C-159.1,322.9-177.1,340.9-199.1,340.9z"/>
	</g>
</g>
</svg>
