<?xml version="1.0" encoding="utf-8"?>
<!-- Generator: Adobe Illustrator 19.0.0, SVG Export Plug-In . SVG Version: 6.00 Build 0)  -->
<svg version="1.1" id="Livello_1" xmlns="http://www.w3.org/2000/svg" xmlns:xlink="http://www.w3.org/1999/xlink" x="0px" y="0px"
	 viewBox="-228 230.3 141.7 141.7" style="enable-background:new -228 230.3 141.7 141.7;" xml:space="preserve">
<style type="text/css">
	.st0{fill:#E74C3C;}
</style>
<g id="Livello_108">
	<path class="st0" d="M-172.2,312.6h-19.7v9.9h1.7V372h16.4v-49.6h1.6V312.6L-172.2,312.6z M-168.4,275.7c0,0,0-0.1,0-0.1h0V233
		c0-1.5-1.2-2.7-2.7-2.7c-1.5,0-2.7,1.2-2.7,2.7v22.4v9.7v1.1c-0.3,1.2-1.4,2.2-2.7,2.2c-1.5,0-2.7-1.2-2.7-2.7v-14.8V233
		c0-1.5-1.2-2.7-2.8-2.7c-1.5,0-2.8,1.2-2.8,2.7v17.9v14.8c0,1.5-1.2,2.7-2.7,2.7c-1.5,0-2.7-1.2-2.7-2.7V233h0c0,0,0-0.1,0-0.1
		c0-1.5-1.2-2.6-2.7-2.6c-1.5,0-2.7,1.2-2.7,2.6c0,0,0,0.1,0,0.1h0v42.6h0c0,0,0,0.1,0,0.1c0,10.7,3.5,19.8,8.5,23.5v12.9h10.1
		v-12.8C-172,295.6-168.4,286.4-168.4,275.7 M-130.3,331.1V274v-43.7c-9.4,2.8-16.4,11.5-16.4,21.9c0,0,0,0,0,0.1h0v78.9h-2.3V342
		h2.3v30h16.4v-30h2.1v-10.9H-130.3z"/>
</g>
<g id="Livello_1_1_">
</g>
</svg>
