<?xml version="1.0" encoding="utf-8"?>
<!-- Generator: Adobe Illustrator 19.0.0, SVG Export Plug-In . SVG Version: 6.00 Build 0)  -->
<svg version="1.1" id="Layer_1" xmlns="http://www.w3.org/2000/svg" xmlns:xlink="http://www.w3.org/1999/xlink" x="0px" y="0px"
	 viewBox="-43 45 512 512" style="enable-background:new -43 45 512 512;" xml:space="preserve">
<style type="text/css">
	.st0{fill:#E74C3C;}
</style>
<g id="Heart_1_">
	<g>
		<g id="Heart_11_">
			<path class="st0" d="M133.2,326.3c7.5,23.9,14.6,46.8,21.7,69.6c3.6,11.4,10,17.1,19.2,17c9.5-0.1,16.3-6.3,19.2-18.2
				c9.1-36.5,18.2-73.1,27.3-109.7c0.6-2.4,1.4-4.9,2.8-9.7c4.3,19.7,8.1,37.2,12,54.6c2.9,12.8,9,17.9,22,18
				c21.1,0.2,42.3,0.2,63.4-0.1c13.5-0.1,21.7-7.7,21.6-19.2c-0.1-11.5-8.2-18.6-21.9-18.8c-16.6-0.2-33.2-0.1-50.8-0.1
				c-4.8-22.1-9.6-43.8-14.2-65.5c-3.9-18.1-7.7-36.2-11.6-54.3c-2.5-11.6-9.4-18.2-19-18.3c-9.1-0.1-16.2,5.9-19,17.1
				c-10.6,42.1-21.1,84.2-31.6,126.4c-0.5,1.8-1.1,3.6-2.4,7.8c-5.9-18.8-11.1-35.5-16.4-52.2c-1.1-3.7-2.2-7.3-3.6-10.9
				c-2.9-7.6-8.5-11.7-16.8-12c-8.7-0.3-15,3.7-18.1,11.6c-5.7,14.6-10.6,29.4-16.6,43.9c-1.2,2.8-5.6,6-8.6,6.1
				c-20.2,0.6-40.3,0.5-60.5,0.1c-2.9-0.1-7.1-2.9-8.3-5.5c-35.9-80.8,5.1-169,91.5-187.6c25-5.4,49-1.2,71.6,10.5
				c11.3,5.9,22.2,12.6,33.2,19.2c8.5,5.1,16.5,5.1,25.3,0.5c15.2-8.1,30.1-17.6,46.4-22.7c65.6-20.5,136.2,3.9,155.7,88.5
				c17,73.7-8.9,134.1-67.2,179.5c-31.9,24.9-67.5,45-101.4,67.3c-12.8,8.4-25.9,16.5-38.5,25.3c-5.6,4-9.5,4.2-15.2,0.1
				c-43-31.6-86.4-62.8-129.3-94.5c-5.8-4.3-11.3-6.3-18.3-6.2c-27.2,0.3-54.4,0.2-81.6,0.1c-11.1,0-18.5-5.2-20.4-13.8
				c-2.7-12.3,5.1-22.1,18.3-22.2c35.5-0.2,71.1-0.1,106.6-0.1C121.8,348.1,123.1,347.4,133.2,326.3z"/>
		</g>
	</g>
</g>
</svg>
