<?xml version="1.0" encoding="utf-8"?>
<!-- Generator: Adobe Illustrator 19.0.0, SVG Export Plug-In . SVG Version: 6.00 Build 0)  -->
<svg version="1.1" id="Layer_1" xmlns="http://www.w3.org/2000/svg" xmlns:xlink="http://www.w3.org/1999/xlink" x="0px" y="0px"
	 viewBox="-49 51 500 500" style="enable-background:new -49 51 500 500;" xml:space="preserve">
<style type="text/css">
	.st0{fill:#E74C3C;}
</style>
<path class="st0" d="M-12,332.8c0,102.9,83.4,186.3,186.3,186.3c102.8,0,186.3-83.4,186.3-186.3c0-35.2-15.1-79.9-27.3-98.8
	c-10.5-16.3-14.2-26.7-14.2-42c0-31.8,33.5-63.6,68.7-63.6h4.5c12.5,0,22.7-10.2,22.7-22.7S404.8,83,392.3,83h-4.5
	c-55.9,0-103.7,29.8-115,90.9c-23.3-17.6-59.4-27.3-98.5-27.3C71.4,146.5-12,230-12,332.8z M151.5,332.8c0-12.5,10.2-22.7,22.7-22.7
	s22.7,10.2,22.7,22.7c0,12.5-10.2,22.7-22.7,22.7S151.5,345.3,151.5,332.8z M33.4,332.8c0-22.6,18.3-40.9,40.9-40.9
	c22.6,0,40.9,18.3,40.9,40.9c0,22.6-18.3,40.9-40.9,40.9C51.7,373.7,33.4,355.4,33.4,332.8z M233.3,332.8
	c0-22.6,18.3-40.9,40.9-40.9c22.6,0,40.9,18.3,40.9,40.9c0,22.6-18.3,40.9-40.9,40.9C251.6,373.7,233.3,355.4,233.3,332.8z
	 M133.4,432.7c0-22.6,18.3-40.9,40.9-40.9s40.9,18.3,40.9,40.9c0,22.6-18.3,40.9-40.9,40.9S133.4,455.4,133.4,432.7z M133.4,232.9
	c0-22.6,18.3-40.9,40.9-40.9s40.9,18.3,40.9,40.9c0,22.6-18.3,40.9-40.9,40.9S133.4,255.5,133.4,232.9z"/>
</svg>
