<?xml version="1.0" encoding="utf-8"?>
<!-- Generator: Adobe Illustrator 19.0.0, SVG Export Plug-In . SVG Version: 6.00 Build 0)  -->
<svg version="1.1" id="Layer_1" xmlns="http://www.w3.org/2000/svg" xmlns:xlink="http://www.w3.org/1999/xlink" x="0px" y="0px"
	 viewBox="-283 284 33 33" style="enable-background:new -283 284 33 33;" xml:space="preserve">
<style type="text/css">
	.st0{fill:#E74C3C;}
</style>
<g>
	<path class="st0" d="M-268.7,303.6c-2.5,2.9,2.3,4.9,2.3,4.9c-0.7-2.1,0.3-3.3,1-5.1c0.8-2.1-1.2-4.7-1.2-4.7
		C-266.7,301.8-268.7,303.6-268.7,303.6z"/>
	<path class="st0" d="M-265.9,308.1c1.2-0.7,2.1-1.6,2.4-2.5c0.3-1.1-1.1-3.6-1.1-3.6c0.3,1.7-0.7,3.3-0.7,3.3
		C-266.2,306.7-265.9,308.1-265.9,308.1z"/>
	<path class="st0" d="M-251.7,301.3c-0.5,0-0.8,0.2-1,0.6l-1.7-1.5v-0.9l-7.2-7.2h0l-3.9-3.9l-0.1-0.1c-0.5-0.5-1.4-0.5-1.9,0
		l-11.1,11.2v0.9l-1.7,1.5c-0.2-0.3-0.6-0.6-1-0.6c-0.7,0-1.2,0.5-1.2,1v3.9h2.4V303l1.5-1.4v4.6l7.7,0l0-0.5c0,0-0.1-4.7,1.9-6.7
		c0.6-0.6,1.4-1,2.3-1l0.2,0l0.2,0c0.9,0,1.7,0.3,2.3,1c2,2.1,1.9,6.7,1.9,6.7l0,0.5l7.7,0v-4.6l1.5,1.4v3.2h2.4v-3.9
		C-250.5,301.8-251,301.3-251.7,301.3z M-255.4,305.2l-5.7,0c0-1.3-0.3-5-2.2-6.9c-0.8-0.8-1.8-1.3-3-1.3l-0.2,0l-0.2,0
		c-1.2,0-2.2,0.4-3,1.3c-1.9,1.9-2.2,5.6-2.2,6.9l-5.7,0v-5.4l8.5-8.6l0,0l2.2-2.2l0.1,0l0-0.1c0.2-0.1,0.4-0.1,0.6,0l2.3,2.3h0
		l8.5,8.6V305.2z"/>
	<path class="st0" d="M-261.7,308.7c-0.3-0.7-1.1-1.2-1.8-0.9l-3,1.1l-2.9-1c-0.8-0.3-1.6,0.1-1.9,0.9c-0.1,0.4-0.1,0.8,0.1,1.1
		c0.1,0.2,0.3,0.4,0.5,0.6c-0.2,0.1-0.4,0.3-0.5,0.6c-0.2,0.4-0.2,0.8-0.1,1.1c0.2,0.6,0.8,1,1.4,1c0.2,0,0.3,0,0.5-0.1l2.9-1l2.9,1
		c0.2,0.1,0.3,0.1,0.5,0.1c0.6,0,1.2-0.4,1.4-1c0.2-0.6,0-1.3-0.6-1.7C-261.7,310-261.5,309.3-261.7,308.7z M-269.7,312.1
		c-0.1,0-0.1,0-0.2,0c-0.2,0-0.4-0.1-0.5-0.4c0-0.1,0-0.3,0-0.4c0.1-0.1,0.2-0.2,0.3-0.3l0.6-0.2l1.6,0.6L-269.7,312.1z
		 M-262.6,311.8c-0.1,0.3-0.4,0.4-0.7,0.3l-2.5-0.9l-3.7-1.3h0l-0.6-0.2c-0.1-0.1-0.2-0.1-0.3-0.3c-0.1-0.1-0.1-0.3,0-0.4
		c0.1-0.2,0.3-0.4,0.5-0.4c0.1,0,0.1,0,0.2,0l1.8,0.6l0,0l3.4,1.2l1.6,0.6C-262.6,311.2-262.5,311.5-262.6,311.8z M-262.9,309.7
		l-0.6,0.2l-0.6-0.2l-1-0.4l1.9-0.7c0.2-0.1,0.5,0.1,0.6,0.4C-262.5,309.3-262.6,309.6-262.9,309.7z"/>
</g>
</svg>
