<?xml version="1.0" encoding="utf-8"?>
<!-- Generator: Adobe Illustrator 19.0.0, SVG Export Plug-In . SVG Version: 6.00 Build 0)  -->
<svg version="1.1" id="Layer_1" xmlns="http://www.w3.org/2000/svg" xmlns:xlink="http://www.w3.org/1999/xlink" x="0px" y="0px"
	 viewBox="-287 289 24 24" style="enable-background:new -287 289 24 24;" xml:space="preserve">
<style type="text/css">
	.st0{fill:#E74C3C;}
</style>
<g id="Layer_2">
</g>
<g>
	<path class="st0" d="M-269,311c0,0-12.9,0-13,0c-0.6,0-1,0.4-1,1v1h15v-1C-268,311.4-268.4,311-269,311z"/>
	<path class="st0" d="M-282,305h12.8c0.1,0,0.1,0,0.2,0c0.6,0,1-0.4,1-1s-0.4-1-1-1h-12.8c-0.1,0-0.1,0-0.2,0c-0.6,0-1,0.4-1,1
		S-282.6,305-282,305z"/>
	<path class="st0" d="M-282,306.5v3c0,0.3,0.2,0.5,0.5,0.5s0.5-0.2,0.5-0.5v-3c0-0.3-0.2-0.5-0.5-0.5S-282,306.2-282,306.5z"/>
	<path class="st0" d="M-280,306.5v3c0,0.3,0.2,0.5,0.5,0.5s0.5-0.2,0.5-0.5v-3c0-0.3-0.2-0.5-0.5-0.5S-280,306.2-280,306.5z"/>
	<path class="st0" d="M-278,306.5v3c0,0.3,0.2,0.5,0.5,0.5s0.5-0.2,0.5-0.5v-3c0-0.3-0.2-0.5-0.5-0.5S-278,306.2-278,306.5z"/>
	<path class="st0" d="M-276,306.5v3c0,0.3,0.2,0.5,0.5,0.5s0.5-0.2,0.5-0.5v-3c0-0.3-0.2-0.5-0.5-0.5S-276,306.2-276,306.5z"/>
	<path class="st0" d="M-274,306.5v3c0,0.3,0.2,0.5,0.5,0.5s0.5-0.2,0.5-0.5v-3c0-0.3-0.2-0.5-0.5-0.5S-274,306.2-274,306.5z"/>
	<path class="st0" d="M-272,306.5v3c0,0.3,0.2,0.5,0.5,0.5s0.5-0.2,0.5-0.5v-3c0-0.3-0.2-0.5-0.5-0.5S-272,306.2-272,306.5z"/>
	<path class="st0" d="M-270,306.5v3c0,0.3,0.2,0.5,0.5,0.5s0.5-0.2,0.5-0.5v-3c0-0.3-0.2-0.5-0.5-0.5S-270,306.2-270,306.5z"/>
	<path class="st0" d="M-275,296v-3h5l-2-2l2-2h-5.5c-0.3,0-0.5,0.2-0.5,0.5v6.5c-3.4,0.2-6,2.8-6,6h13
		C-269,298.8-271.6,296.3-275,296z"/>
</g>
</svg>
