<?xml version="1.0" encoding="utf-8"?>
<!-- Generator: Adobe Illustrator 19.0.0, SVG Export Plug-In . SVG Version: 6.00 Build 0)  -->
<svg version="1.1" id="Layer_1" xmlns="http://www.w3.org/2000/svg" xmlns:xlink="http://www.w3.org/1999/xlink" x="0px" y="0px"
	 viewBox="-283 284 33 33" style="enable-background:new -283 284 33 33;" xml:space="preserve">
<style type="text/css">
	.st0{fill:#E74C3C;}
</style>
<g>
	<path class="st0" d="M-264.9,312c-0.3-0.2-0.8-0.2-1.1,0c0,0,0,0-0.1,0.1l-3.1-2.1c0-0.1,0.1-0.2,0.1-0.2c1.5-2.8,0.3-6.6-2.9-8.7
		c-1.4-1-3.1-1.5-4.7-1.5c-2.1,0-3.9,0.9-4.9,2.4c-0.9,1.4-1.2,3.1-0.7,4.9c0.5,1.7,1.6,3.3,3.2,4.4c1.4,1,3.1,1.5,4.7,1.5
		c0,0,0,0,0,0c1.8,0,3.4-0.7,4.5-1.9c0,0,0.1-0.1,0.1-0.1l3.1,2.1c0,0,0,0,0,0.1c-0.1,0.4,0.1,0.8,0.4,1l2.5,1.7
		c0.4,0.3,1,0.2,1.3-0.2l0.2-0.3c0.3-0.4,0.2-1-0.2-1.3L-264.9,312z M-270.7,303.6c0.3,0.4,0.5,0.7,0.7,1.1l-0.3,0.4l-1-0.8
		L-270.7,303.6z M-275.3,304.2l-1-0.8l0.9-1.1l1,0.8L-275.3,304.2z M-273.7,303.8l1,0.8l-0.9,1.1l-1-0.8L-273.7,303.8z M-275.9,305
		l-0.9,1.1l-1-0.8l0.9-1.1L-275.9,305z M-277.4,306.8l-0.9,1.1l-1-0.8l0.9-1.1L-277.4,306.8z M-276.6,307.4l1,0.8l-0.9,1.1l-1-0.8
		L-276.6,307.4z M-276,306.7l0.9-1.1l1,0.8l-0.9,1.1L-276,306.7z M-273.4,307l1,0.8l-0.9,1.1l-1-0.8L-273.4,307z M-272.8,306.2
		l0.9-1.1l1,0.8l-0.9,1.1L-272.8,306.2z M-272.3,302.1c0.3,0.3,0.6,0.5,0.9,0.8l-0.7,0.9l-1-0.8L-272.3,302.1z M-274.3,301
		c0.4,0.1,0.8,0.3,1.1,0.5l-0.7,0.9l-1-0.8L-274.3,301z M-275.3,300.7l-0.2,0.3l-0.5-0.4C-275.8,300.6-275.5,300.6-275.3,300.7z
		 M-277.6,300.6l1.4,1.2l-0.9,1.1l-2.2-1.7C-278.7,300.9-278.1,300.7-277.6,300.6z M-280.8,302.5c0.2-0.3,0.5-0.6,0.7-0.8l2.4,1.9
		l-0.9,1.1l-2.4-2C-280.9,302.7-280.8,302.6-280.8,302.5z M-281.5,305.3c0-0.6,0-1.1,0.2-1.6l2.2,1.8l-0.9,1.1L-281.5,305.3
		L-281.5,305.3z M-280.9,307.7c-0.1-0.3-0.2-0.6-0.3-0.9l0.6,0.5L-280.9,307.7z M-279.5,309.5c-0.3-0.3-0.6-0.6-0.8-1l0.5-0.6l1,0.8
		L-279.5,309.5z M-277.8,310.8c-0.2-0.1-0.5-0.3-0.7-0.4c-0.1-0.1-0.2-0.2-0.3-0.3l0.7-0.8l1,0.8L-277.8,310.8z M-275.6,311.6
		c-0.4-0.1-0.9-0.2-1.3-0.4l0.5-0.6l1,0.8L-275.6,311.6z M-274.8,310.7l-1-0.8l0.9-1.1l1,0.8L-274.8,310.7z M-273.6,311.7l-0.5-0.4
		l0.9-1.1l1.2,1C-272.4,311.5-273,311.6-273.6,311.7z M-270.5,310.2c-0.2,0.2-0.4,0.3-0.5,0.5l-1.5-1.2l0.9-1.1l1.6,1.3
		C-270.2,309.8-270.4,310-270.5,310.2z M-269.7,308.7l-1.4-1.1l0.9-1.1l0.7,0.6C-269.5,307.7-269.6,308.2-269.7,308.7z"/>
	<path class="st0" d="M-282.3,295c0.4,1,1.7,1.8,3.6,2.2v0c0.1,0,1.1,0.3,2.6,0.3c3,0,7.9-0.9,11.6-6.1l0,0c0.9-1.5,1.2-2.8,0.9-3.8
		c-0.4-1.1-1.8-1.9-3.7-2.3l0,0c-9.5-1.3-13.9,5.7-14,5.8v0l0,0v0C-282.4,292.6-282.7,294-282.3,295z M-268.5,286.2
		c0.2,1.2,0.7,3.7,2.6,5.4c-4.3,5.4-9.9,5.2-11.9,4.9c-0.2-2.5-1.7-4.6-2.4-5.4C-279,289.5-275.3,285.6-268.5,286.2z"/>
	<path class="st0" d="M-276.8,290.4c-0.2,0.2-0.5,0.5-0.7,0.7l0.7,0.6c0.2-0.2,0.3-0.4,0.5-0.6c0.2,0.4,0.4,0.8,0.4,1.3l1-0.2
		c-0.1-0.7-0.4-1.2-0.6-1.7c0.5-0.3,1-0.6,1.4-0.9c0.2,0.4,0.4,0.9,0.5,1.4l1-0.1c-0.1-0.6-0.3-1.2-0.6-1.6c0.6-0.2,1.1-0.3,1.5-0.4
		c0.2,0.4,0.3,0.9,0.4,1.4l1-0.1c0-0.5-0.2-1-0.3-1.5c0.3,0,0.6,0,0.6,0l0-1c-0.1,0-0.4,0-1,0.1c-0.5-0.8-1-1.2-1-1.3l-0.6,0.7
		c0,0,0.3,0.3,0.6,0.7c-0.5,0.1-1,0.3-1.6,0.5c-0.5-0.7-1-1-1.1-1.1l-0.6,0.8c0,0,0.3,0.2,0.7,0.7c-0.5,0.2-1,0.5-1.4,0.9
		c-0.5-0.6-1-0.9-1-1l-0.5,0.8C-277.6,289.7-277.2,289.9-276.8,290.4z"/>
	<path class="st0" d="M-258.5,293.9c-4.4,0-8,3.6-8,8c0,4.4,3.6,8,8,8c4.4,0,8-3.6,8-8C-250.5,297.4-254.1,293.9-258.5,293.9z
		 M-258.5,294.8c3.1,0,5.7,2,6.6,4.7c-4.7,0-6.4-3.4-6.9-4.7C-258.6,294.8-258.5,294.8-258.5,294.8z M-258.5,308.8
		c-3.1,0-5.7-2-6.6-4.8c1.5-0.1,5.3,0.2,7,4.8C-258.2,308.8-258.3,308.8-258.5,308.8z M-257.1,308.7c-1.9-5.5-6.7-5.7-8.2-5.7
		c-0.1-0.4-0.1-0.8-0.1-1.2c0-1.3,0.3-2.5,0.9-3.5c1.6,0.9,7.8,4.5,11.5,7.9C-254,307.5-255.5,308.3-257.1,308.7z M-264,297.5
		c1-1.3,2.5-2.3,4.2-2.6c0.5,1.4,2.3,5.6,7.8,5.6c0.1,0,0.2,0,0.3,0c0.1,0.4,0.1,0.8,0.1,1.3c0,1.3-0.4,2.5-1,3.6
		C-256.3,302-262.2,298.5-264,297.5z"/>
</g>
</svg>
